<svg xmlns="http://www.w3.org/2000/svg" viewBox="0 0 770 164.999" height="164.999" width="770"><defs><clipPath id="a" clipPathUnits="userSpaceOnUse"><path d="M.223 7926.66h3519.66v754.215H.223z"/></clipPath></defs><g clip-path="url(#a)" transform="matrix(.21877 0 0 -.21877 -.049 1899.125)"><path d="M2371.27 8092.09c-5.45-51.8-43.5-72.87-71.12-72.87-27.62 0-35.69 29.85-31.9 65.85.8 7.67.87 8.24 1.36 12.98 4.43 42.14 23.35 65.84 66.26 76.38 13.06 3.51 45.57 14.49 45.57 14.49zm-15.21 334.52c-74.1 0-138.46-35.48-149.38-139.38l-.81-8.03h86.27l2.14 20.62c4.01 38.19 23.64 63.79 56.11 63.79 35.57 0 47.04-22.66 43.12-59.94l-1.17-11.06c-3.44-32.74-15.73-47.27-48.48-57.27l-58.26-17.86c-69.97-21.79-103.24-47.17-112.13-131.8-6.34-60.32 10.81-127.6 79.2-127.6 40.8 0 193.67 5.72 193.67 5.72l34.12 324.56c8.54 81.27-7.56 138.25-124.4 138.25zm-564.39-97.67l-38.41-365.71h-91.99l31.69 301.75c3.15 30.03 8.37 79.78-42.48 79.78-50.85 0-57.17-60.27-59.22-79.85l-31.69-301.68h-91.99l48.05 457.38s146.18 5.75 190.86 5.75c55.51 0 90.97-42.36 85.18-97.42zm28.17-365.71h91.98l48.05 457.09h-91.99zm63.05 599.94h91.99l-7.8-74.28h-91.99zm-538.1-267.3l-21.77-207.05c-3.02-28.72-7.14-67.89-57.99-67.89s-46.73 39.17-43.71 67.89l21.76 207.05c3.02 28.72 7.13 67.89 57.99 67.89 50.85 0 46.73-39.17 43.72-67.89zm-37.12 130.74c-122.84 0-150.82-75.93-156.46-129.57l-22.02-209.54c-5.64-53.62 6.45-129.42 129.29-129.42 122.85 0 150.75 75.8 156.4 129.42l22.01 209.54c5.65 53.64-6.37 129.57-129.22 129.57zm863.08-6.29l-12.41-62.85h-39.09l-28.61-268.94c-2.76-26.29-6.62-61.03 31.66-66.77v-63.63c-17.14.31-31.87 2.16-44.85 5.26-75.87 18.12-83.53 78.97-78.79 124.11l43.11 409.43 93.05 9.39-8.97-86zm-1168.8-38.1c-4.817-45.87-14.462-85.31-67.602-85.31h-58.496l17.359 165.13h64.906c41.231 0 49.233-28.44 43.833-79.82zm-18.458-246.29c-7.324-69.68-16.57-99-70.308-99h-18.071c-39.984 0-43.957 25.28-42.117 42.77l7.977 75.76 8.273 78.59h68.184c50.211 0 51.164-49.6 46.062-98.12zm111.848 264.65c10.3 97.97-32.38 134.02-128.078 134.02H802.563l-23.817-226.28-23.207-220.96c-5.637-53.64 6.422-129.85 129.266-129.85h26.082c117.133 0 160.263 76.94 170.323 172.76 7.6 72.23-9.41 123.42-72.19 134.86l.14 1.44c65.68 21.45 79.87 73.94 86.18 134.01" fill="#0d2b36"/><path d="M503.746 8406.61h34.281l-3.605-34.28 110.051 68.56-95.637 68.57-3.602-34.28s-23.406.19-33.691.19c-95.313 0-142.383-31.48-124.313-111.04 9.309-41.01 19.223-64.65 37.317-129.13 23.941-85.32-48.547-171.41-162.527-171.41-141.161 0-197.774 145.11-77.977 424.89 24.551 57.34 56.523 120.35 96.691 188.92-8.027 2.13-16.562 3.27-25.484 3.27-38.07 0-73.488-20.69-94.508-51.44a1413.1 1413.1 0 01-7.078-11.78C64.004 8467 24.594 8345.59 9.379 8269.48c-37.106-185.58 34.602-342.02 238.226-342.82 177.477-.71 360.559 172.3 276.008 342.82-40.734 82.15-68.386 137.13-19.867 137.13zM348.598 8235.2c-3.989-37.86-37.922-68.57-75.785-68.57-37.868 0-65.333 30.71-61.344 68.57 3.992 37.87 37.922 68.56 75.785 68.56 37.871 0 65.336-30.69 61.344-68.56zm-187.856 394.23a1413.1 1413.1 0 01-7.078-11.78c2.129 4.07 4.492 8 7.078 11.78zm2539.428-403.37l-46.07 20.27c-32.29 13.66-40.24 33.7-37.76 57.38.29 2.72.51 4.81.76 7.23 3.64 34.6 27.41 52.82 53.08 52.82 33 0 41.87-24.59 36.71-73.77l-.78-7.37h82.28l1.66 15.79c8.55 81.28-26.38 128.2-110.72 128.2-95.81 0-139.9-59.74-147.74-134.31-6.7-63.68 18.05-97.33 66.96-119.95l62.06-29.14c18.15-8.78 33.03-22.82 29.8-53.54-.2-1.88-1.14-10.84-1.32-12.56-3.97-37.74-25.77-56.18-55.45-56.18-33.22 0-48.16 27.21-43.82 68.46l2.65 25.25h-82.28l-1.39-13.28c-9.08-86.3 13.95-143.28 118.53-143.28 78.28 0 139.58 44.07 149.54 138.75 7.13 67.87-20.55 104.93-76.7 129.23zm819.71 194.83l-13.09-62.85h-39.11l-28.32-269.22c-2.76-26.29-6.33-61.32 31.95-67.06v-63.63c-17.14.31-32.16 2.16-45.13 5.26-75.87 18.12-83.68 78.97-78.93 124.11l28.43 270.54h-98.83l-41.44-394.24h-92l41.45 394.24h-28.58l6.61 62.85h28.57l4.4 41.85c4.74 45.17 25.44 106.17 105.05 124.28 15.21 3.39 31.95 5.29 51.34 5.29 8.29 0 16.03-.35 23.39-1.01l-.01-.13-13.34-63.47c-4.77 1.14-10.27 1.76-16.66 1.76-45.07 0-53.43-30.78-56.84-57.77l-5.34-50.8h98.84l7.99 76.04 93.02 9.67-9.01-85.71zm-492.4-125.02l-21.77-207.05c-3.01-28.72-7.13-67.89-57.99-67.89-50.85 0-46.73 39.17-43.71 67.89l21.76 207.05c3.02 28.72 7.14 67.89 57.99 67.89s46.73-39.17 43.72-67.89zm-37.11 130.74c-122.85 0-150.83-75.93-156.47-129.57l-22.02-209.54c-5.64-53.62 6.45-129.42 129.3-129.42 122.84 0 150.75 75.8 156.39 129.42l22.02 209.54c5.64 53.64-6.38 129.57-129.22 129.57" fill="#e51636"/></g></svg>